<svg width="17" height="23" viewBox="0 0 17 23" fill="none" xmlns="http://www.w3.org/2000/svg">
<path d="M5.34483 1.99237L8.75356 1H11.331L15 6.64886L8.75356 21L3.51034 10.9237L1 9.01527L5.34483 1.99237Z" fill="white"/>
<path d="M5.34483 1.99237L8.75356 1H11.331L15 6.64886L8.75356 21L3.51034 10.9237L1 9.01527L5.34483 1.99237Z" stroke="#E0E0E0"/>
<path d="M5.34483 1.99237L8.75356 1H11.331L15 6.64886L8.75356 21L3.51034 10.9237L1 9.01527L5.34483 1.99237Z" stroke="#03A6DA" stroke-opacity="0.2"/>
<path d="M1 9.06867L7.02778 8.12446M7.02778 8.12446L3.43056 11.0429L5.27778 1.94421M7.02778 8.12446L15 6.83691L5.27778 1.94421M7.02778 8.12446L11.5 1L8.875 21L5.27778 1.94421" stroke="#03A6DA" stroke-opacity="0.2" stroke-width="0.7"/>
</svg>
