<svg xmlns="http://www.w3.org/2000/svg" fill="none" viewBox="0 0 46 58"><rect width="25.081" height="46.921" x="19.852" y="1" stroke="#494949" stroke-width="2" rx="4"/><path fill="#494949" d="M25.842 10.483h5.242v4.368h-5.242zM35.449 10.483h4.368v4.368h-4.368zM25.842 20.966h5.242v4.368h-5.242zM35.449 20.966h4.368v4.368h-4.368zM25.842 30.576h5.242v4.368h-5.242zM35.449 30.576h4.368v4.368h-4.368z"/><g filter="url(#filter0_d)"><rect width="26.402" height="49.19" x="4" y="4.099" fill="#1EE8D9" rx="5"/><rect width="24.402" height="47.19" x="5" y="5.099" stroke="#494949" stroke-width="2" rx="4"/></g><path fill="#494949" d="M10.213 14.347h4.659v4.099h-4.659zM19.533 14.347h4.659v4.099h-4.659zM10.213 24.595h4.659v4.099h-4.659zM19.533 24.595h4.659v4.099h-4.659zM10.213 34.843h4.659v4.099h-4.659zM19.533 34.843h4.659v4.099h-4.659z"/><defs><filter id="filter0_d" width="34.402" height="57.19" x="0" y=".099" color-interpolation-filters="sRGB" filterUnits="userSpaceOnUse"><feFlood flood-opacity="0" result="BackgroundImageFix"/><feColorMatrix in="SourceAlpha" values="0 0 0 0 0 0 0 0 0 0 0 0 0 0 0 0 0 0 127 0"/><feOffset/><feGaussianBlur stdDeviation="2"/><feColorMatrix values="0 0 0 0 0.854902 0 0 0 0 0.0705882 0 0 0 0 0.352941 0 0 0 0.23 0"/><feBlend in2="BackgroundImageFix" result="effect1_dropShadow"/><feBlend in="SourceGraphic" in2="effect1_dropShadow" result="shape"/></filter></defs></svg>