<svg width="46" height="58" viewBox="0 0 46 58" fill="none" xmlns="http://www.w3.org/2000/svg">
<rect x="19.8516" y="1" width="25.0813" height="46.921" rx="4" stroke="#494949" stroke-width="2"/>
<rect x="25.8418" y="10.4831" width="5.24154" height="4.36795" fill="#494949"/>
<rect x="35.4492" y="10.4831" width="4.36795" height="4.36795" fill="#494949"/>
<rect x="25.8418" y="20.9661" width="5.24154" height="4.36795" fill="#494949"/>
<rect x="35.4492" y="20.9661" width="4.36795" height="4.36795" fill="#494949"/>
<rect x="25.8418" y="30.5758" width="5.24154" height="4.36795" fill="#494949"/>
<rect x="35.4492" y="30.5758" width="4.36795" height="4.36795" fill="#494949"/>
<g filter="url(#filter0_d)">
<rect x="4" y="4.09937" width="26.4018" height="49.1898" rx="5" fill="#1EE8D9"/>
<rect x="5" y="5.09937" width="24.4018" height="47.1898" rx="4" stroke="#494949" stroke-width="2"/>
</g>
<rect x="10.2129" y="14.3473" width="4.65915" height="4.09915" fill="#494949"/>
<rect x="19.5332" y="14.3473" width="4.65915" height="4.09915" fill="#494949"/>
<rect x="10.2129" y="24.5953" width="4.65915" height="4.09915" fill="#494949"/>
<rect x="19.5332" y="24.5953" width="4.65915" height="4.09915" fill="#494949"/>
<rect x="10.2129" y="34.8431" width="4.65915" height="4.09915" fill="#494949"/>
<rect x="19.5332" y="34.8431" width="4.65915" height="4.09915" fill="#494949"/>
<defs>
<filter id="filter0_d" x="0" y="0.0993652" width="34.4018" height="57.1898" filterUnits="userSpaceOnUse" color-interpolation-filters="sRGB">
<feFlood flood-opacity="0" result="BackgroundImageFix"/>
<feColorMatrix in="SourceAlpha" type="matrix" values="0 0 0 0 0 0 0 0 0 0 0 0 0 0 0 0 0 0 127 0"/>
<feOffset/>
<feGaussianBlur stdDeviation="2"/>
<feColorMatrix type="matrix" values="0 0 0 0 0.854902 0 0 0 0 0.0705882 0 0 0 0 0.352941 0 0 0 0.23 0"/>
<feBlend mode="normal" in2="BackgroundImageFix" result="effect1_dropShadow"/>
<feBlend mode="normal" in="SourceGraphic" in2="effect1_dropShadow" result="shape"/>
</filter>
</defs>
</svg>
