<svg width="34" height="34" viewBox="0 0 34 34" fill="none" xmlns="http://www.w3.org/2000/svg">
<circle cx="17" cy="17" r="16.5" stroke="black"/>
<path d="M16.3031 19.953H17.5886V19.5695C17.6099 18.007 18.036 17.2968 19.3216 16.4516C20.671 15.5709 21.3528 14.5624 21.3528 13.1206C21.3528 10.9545 19.7335 9.37775 17.3755 9.37775C15.1099 9.37775 13.3556 10.8763 13.2846 13.213H14.627C14.698 11.4516 15.9551 10.5141 17.3755 10.5141C18.8741 10.5141 20.0602 11.5297 20.0602 13.0638C20.0602 14.1576 19.4778 14.9459 18.4409 15.6206C17.0275 16.5226 16.3173 17.3252 16.3031 19.5695V19.953ZM16.9849 24.2286C17.5531 24.2286 18.0076 23.767 18.0076 23.2059C18.0076 22.6377 17.5531 22.1831 16.9849 22.1831C16.4238 22.1831 15.9622 22.6377 15.9622 23.2059C15.9622 23.767 16.4238 24.2286 16.9849 24.2286Z" fill="#2D2D2D"/>
</svg>